<mxfile host="app.diagrams.net" modified="2020-10-13T06:22:22.383Z" agent="5.0 (Windows NT 10.0; Win64; x64) AppleWebKit/537.36 (KHTML, like Gecko) Chrome/85.0.4183.121 Safari/537.36 OPR/71.0.3770.228" etag="LqcNxhWu--tEEpatB5uG" version="13.7.9" type="github">
  <diagram id="EGZNZqLGof7JbSLH0rr6" name="Page-1">
    <mxGraphModel dx="333" dy="183" grid="1" gridSize="10" guides="1" tooltips="1" connect="1" arrows="1" fold="1" page="1" pageScale="1" pageWidth="1100" pageHeight="1700" math="0" shadow="0">
      <root>
        <mxCell id="0" />
        <mxCell id="1" parent="0" />
        <mxCell id="xwwWXdzjIdcxHAzQ7T1N-3" value="User" style="shape=umlActor;verticalLabelPosition=bottom;verticalAlign=top;html=1;" vertex="1" parent="1">
          <mxGeometry x="300" y="790" width="30" height="60" as="geometry" />
        </mxCell>
        <mxCell id="xwwWXdzjIdcxHAzQ7T1N-4" value="New User" style="shape=umlActor;verticalLabelPosition=bottom;verticalAlign=top;html=1;" vertex="1" parent="1">
          <mxGeometry x="370" y="730" width="30" height="60" as="geometry" />
        </mxCell>
        <mxCell id="xwwWXdzjIdcxHAzQ7T1N-7" value="Old User" style="shape=umlActor;verticalLabelPosition=bottom;verticalAlign=top;html=1;" vertex="1" parent="1">
          <mxGeometry x="390" y="830" width="30" height="60" as="geometry" />
        </mxCell>
      </root>
    </mxGraphModel>
  </diagram>
</mxfile>
